<svg width="12" height="7" viewBox="0 0 12 7" fill="none" xmlns="http://www.w3.org/2000/svg">
<path d="M6.43346 0.299935L11.2668 5.13327C11.3335 5.19993 11.3832 5.27194 11.4161 5.34927C11.449 5.4266 11.4659 5.51016 11.4668 5.59993C11.4668 5.77771 11.4055 5.93327 11.2828 6.0666C11.1601 6.19994 10.9992 6.2666 10.8001 6.2666L0.666797 6.2666C0.466797 6.2666 0.305464 6.19994 0.182797 6.0666C0.0601301 5.93327 -0.000757217 5.77771 0.000131607 5.59993C0.000131607 5.55549 0.0667982 5.39993 0.200131 5.13327L5.03346 0.299935C5.14458 0.188824 5.25569 0.111047 5.3668 0.0666032C5.47791 0.0221586 5.60013 -6.38962e-05 5.73346 -6.38962e-05C5.8668 -6.38962e-05 5.98902 0.0221586 6.10013 0.0666032C6.21124 0.111047 6.32235 0.188824 6.43346 0.299935Z" fill="#454545"/>
</svg>
