<svg width="168" height="126" viewBox="0 0 168 126" fill="none" xmlns="http://www.w3.org/2000/svg">
<mask id="mask0_2729_5669" style="mask-type:alpha" maskUnits="userSpaceOnUse" x="0" y="0" width="168" height="126">
<rect y="0.91272" width="167.192" height="124.175" fill="#D9D9D9"/>
</mask>
<g mask="url(#mask0_2729_5669)">
<path d="M82.4311 31.2117L75.4383 115.36L41.5211 125.087L7.53537 115.36C7.26291 113.137 -3.05176e-05 31.2117 -3.05176e-05 31.2117H82.4311ZM54.8853 70.7161H17.7692L18.704 79.6685H54.1192C54.1454 79.6685 53.1684 91.0332 53.1684 91.0332C53.1684 91.0332 53.0795 93.5389 51.5234 93.9789L41.5211 96.5177L30.9396 93.9789C29.5659 93.6973 29.4724 90.999 29.4724 90.999L28.9913 85.2955H19.1543L20.3011 101.158L41.5211 107.025L62.3603 101.021L67.179 48.8748H15.8711L16.7853 58.8042L55.9649 58.7906L54.8853 70.7161Z" fill="#1A1818"/>
<path d="M167.194 31.2128L160.201 115.361L126.282 125.087L92.2978 115.361L84.7624 31.2128H167.194ZM151.904 48.8759H100.634L103.465 79.6696H138.881L137.93 91.0331C137.93 91.0331 137.859 93.4773 136.285 93.98L126.282 96.5177L115.702 93.98C114.277 93.703 114.235 91.0001 114.235 91.0001L113.754 85.2966H103.917L105.064 101.159L126.282 107.035L147.123 101.021L149.923 70.7172H112.824L111.813 58.8019L151.023 58.7016L151.904 48.8759Z" fill="#1A1818"/>
<path d="M12.9647 16.5295V2.13667H14.7076V8.54599H22.3819V2.13667H24.1248V16.5295H22.3819V10.0921H14.7076V16.5295H12.9647ZM26.827 3.68278V2.13667H37.6216V3.68278H33.0958V16.5295H31.3529V3.68278H26.827ZM40.3115 2.13667H42.3917L47.2831 14.0839H47.4517L52.3431 2.13667H54.4233V16.5295H52.7928V5.59433H52.6523L48.1545 16.5295H46.5803L42.0825 5.59433H41.942V16.5295H40.3115V2.13667ZM57.9178 16.5295V2.13667H59.6607V14.9834H66.3512V16.5295H57.9178Z" fill="#1A1818"/>
<path d="M118.219 6.63444H116.476C116.373 6.13313 116.193 5.69272 115.935 5.31322C115.682 4.93372 115.373 4.61513 115.007 4.35744C114.647 4.09507 114.246 3.8983 113.806 3.76711C113.365 3.63593 112.906 3.57033 112.428 3.57033C111.557 3.57033 110.767 3.79054 110.06 4.23094C109.357 4.67135 108.797 5.32025 108.38 6.17764C107.968 7.03502 107.762 8.08685 107.762 9.3331C107.762 10.5794 107.968 11.6312 108.38 12.4886C108.797 13.346 109.357 13.9949 110.06 14.4353C110.767 14.8757 111.557 15.0959 112.428 15.0959C112.906 15.0959 113.365 15.0303 113.806 14.8991C114.246 14.7679 114.647 14.5735 115.007 14.3158C115.373 14.0534 115.682 13.7325 115.935 13.353C116.193 12.9688 116.373 12.5284 116.476 12.0318H118.219C118.088 12.7673 117.849 13.4256 117.502 14.0066C117.156 14.5875 116.725 15.0818 116.209 15.4894C115.694 15.8924 115.115 16.1992 114.473 16.4101C113.836 16.6209 113.154 16.7263 112.428 16.7263C111.201 16.7263 110.109 16.4265 109.153 15.8268C108.197 15.2271 107.446 14.3744 106.897 13.2687C106.349 12.163 106.075 10.8511 106.075 9.3331C106.075 7.81511 106.349 6.50326 106.897 5.39755C107.446 4.29185 108.197 3.43915 109.153 2.83945C110.109 2.23974 111.201 1.93989 112.428 1.93989C113.154 1.93989 113.836 2.04531 114.473 2.25614C115.115 2.46697 115.694 2.7762 116.209 3.18381C116.725 3.58673 117.156 4.07868 117.502 4.65964C117.849 5.23591 118.088 5.89418 118.219 6.63444ZM128.907 5.73489C128.822 5.02274 128.48 4.46989 127.881 4.07633C127.281 3.68278 126.545 3.486 125.674 3.486C125.037 3.486 124.479 3.58907 124.001 3.79522C123.528 4.00137 123.158 4.28482 122.891 4.64558C122.628 5.00634 122.497 5.41629 122.497 5.87544C122.497 6.25963 122.589 6.58993 122.771 6.86636C122.959 7.1381 123.198 7.36533 123.488 7.54805C123.779 7.72609 124.083 7.87367 124.402 7.9908C124.72 8.10325 125.013 8.19461 125.28 8.26488L126.742 8.65844C127.117 8.75683 127.534 8.8927 127.993 9.06605C128.457 9.2394 128.9 9.476 129.321 9.77585C129.748 10.071 130.099 10.4505 130.375 10.9144C130.652 11.3782 130.79 11.9474 130.79 12.6221C130.79 13.3998 130.586 14.1026 130.179 14.7304C129.776 15.3582 129.185 15.8572 128.408 16.2273C127.635 16.5975 126.695 16.7825 125.589 16.7825C124.559 16.7825 123.666 16.6162 122.912 16.2836C122.162 15.9509 121.572 15.4871 121.141 14.8921C120.715 14.2971 120.473 13.606 120.417 12.8189H122.216C122.263 13.3624 122.446 13.8121 122.764 14.1682C123.088 14.5196 123.495 14.782 123.987 14.9553C124.484 15.124 125.018 15.2083 125.589 15.2083C126.255 15.2083 126.852 15.1006 127.382 14.885C127.911 14.6648 128.33 14.3603 128.64 13.9714C128.949 13.5779 129.103 13.1187 129.103 12.594C129.103 12.1161 128.97 11.7272 128.703 11.4274C128.436 11.1275 128.084 10.8839 127.649 10.6965C127.213 10.5091 126.742 10.3451 126.236 10.2045L124.465 9.69855C123.341 9.37527 122.45 8.91378 121.794 8.31408C121.139 7.71438 120.811 6.92961 120.811 5.95977C120.811 5.15392 121.028 4.45115 121.464 3.85144C121.905 3.24706 122.495 2.77854 123.235 2.44589C123.98 2.10856 124.812 1.93989 125.73 1.93989C126.658 1.93989 127.482 2.10621 128.204 2.43886C128.925 2.76682 129.497 3.2166 129.919 3.78819C130.345 4.35979 130.57 5.00868 130.593 5.73489H128.907ZM141.527 5.73489C141.442 5.02274 141.1 4.46989 140.501 4.07633C139.901 3.68278 139.165 3.486 138.294 3.486C137.657 3.486 137.099 3.58907 136.621 3.79522C136.148 4.00137 135.778 4.28482 135.511 4.64558C135.249 5.00634 135.117 5.41629 135.117 5.87544C135.117 6.25963 135.209 6.58993 135.391 6.86636C135.579 7.1381 135.818 7.36533 136.108 7.54805C136.399 7.72609 136.703 7.87367 137.022 7.9908C137.34 8.10325 137.633 8.19461 137.9 8.26488L139.362 8.65844C139.737 8.75683 140.154 8.8927 140.613 9.06605C141.077 9.2394 141.52 9.476 141.941 9.77585C142.368 10.071 142.719 10.4505 142.995 10.9144C143.272 11.3782 143.41 11.9474 143.41 12.6221C143.41 13.3998 143.206 14.1026 142.799 14.7304C142.396 15.3582 141.805 15.8572 141.028 16.2273C140.255 16.5975 139.315 16.7825 138.21 16.7825C137.179 16.7825 136.286 16.6162 135.532 16.2836C134.782 15.9509 134.192 15.4871 133.761 14.8921C133.335 14.2971 133.093 13.606 133.037 12.8189H134.836C134.883 13.3624 135.066 13.8121 135.384 14.1682C135.708 14.5196 136.115 14.782 136.607 14.9553C137.104 15.124 137.638 15.2083 138.21 15.2083C138.875 15.2083 139.472 15.1006 140.002 14.885C140.531 14.6648 140.95 14.3603 141.26 13.9714C141.569 13.5779 141.723 13.1187 141.723 12.594C141.723 12.1161 141.59 11.7272 141.323 11.4274C141.056 11.1275 140.704 10.8839 140.269 10.6965C139.833 10.5091 139.362 10.3451 138.856 10.2045L137.085 9.69855C135.961 9.37527 135.071 8.91378 134.415 8.31408C133.759 7.71438 133.431 6.92961 133.431 5.95977C133.431 5.15392 133.649 4.45115 134.084 3.85144C134.525 3.24706 135.115 2.77854 135.855 2.44589C136.6 2.10856 137.432 1.93989 138.35 1.93989C139.278 1.93989 140.102 2.10621 140.824 2.43886C141.545 2.76682 142.117 3.2166 142.539 3.78819C142.965 4.35979 143.19 5.00868 143.213 5.73489H141.527Z" fill="#1A1818"/>
</g>
</svg>
