<svg width="19" height="20" viewBox="0 0 19 20" fill="none" xmlns="http://www.w3.org/2000/svg">
<path d="M12.4472 12.3204C12.3627 12.6006 12.3345 12.8248 12.3345 12.9369C12.3345 13.3292 12.588 13.5253 13.0669 13.5253C13.4049 13.5253 13.7711 13.3852 14.1373 13.133C14.5035 12.8808 14.8415 12.5166 15.1232 12.0682C15.4049 11.6199 15.6585 11.0875 15.8556 10.499C16.0528 9.91056 16.1373 9.29409 16.1373 8.62157C16.1373 7.64082 15.9683 6.77216 15.6021 6.01558C15.2641 5.259 14.7852 4.61451 14.1655 4.0821C13.5458 3.54969 12.8697 3.15739 12.081 2.87718C11.2923 2.59696 10.4472 2.45685 9.57394 2.45685C8.50352 2.45685 7.51761 2.653 6.6162 3.0453C5.71479 3.4376 4.92606 3.99803 4.27817 4.67055C3.63028 5.37108 3.12324 6.18371 2.75704 7.10841C2.39085 8.03312 2.19366 9.04189 2.19366 10.1347C2.19366 11.2276 2.39085 12.2363 2.75704 13.1891C3.15141 14.1138 3.68662 14.9264 4.36268 15.5989C5.03873 16.2714 5.82746 16.8038 6.75704 17.1681C7.68662 17.5324 8.64437 17.7285 9.71479 17.7285C10.9261 17.7285 12.0528 17.5044 13.0951 17.084C14.1373 16.6637 14.9542 16.0192 15.5739 15.2066H17.5176C17.1796 15.8511 16.7007 16.4115 16.1655 16.9159C15.6303 17.4203 14.9824 17.8686 14.2782 18.2329C13.5739 18.5972 12.8415 18.8774 12.0528 19.0736C11.2641 19.2697 10.4754 19.3818 9.65845 19.3818C8.33451 19.3818 7.09507 19.1296 5.96831 18.6532C4.84155 18.1769 3.82747 17.5044 2.98239 16.6637C2.13732 15.8231 1.46127 14.8423 0.982394 13.6935C0.503521 12.5446 0.25 11.3396 0.25 10.0507C0.25 8.76168 0.503521 7.55675 0.982394 6.4359C1.46127 5.31504 2.13732 4.33429 2.98239 3.49365C3.82747 2.653 4.81338 2.00851 5.94014 1.53214C7.0669 1.05578 8.27817 0.803589 9.54577 0.803589C10.7289 0.803589 11.8275 0.999738 12.8697 1.36402C13.912 1.75632 14.8134 2.2607 15.6021 2.93322C16.3908 3.60573 16.9824 4.41835 17.4331 5.31504C17.8838 6.23975 18.1092 7.24852 18.1092 8.34136C18.1092 9.43419 17.912 10.3589 17.5176 11.2276C17.1232 12.0962 16.6444 12.8248 16.0246 13.4413C15.4331 14.0577 14.7852 14.5341 14.1092 14.8704C13.4331 15.2066 12.7852 15.3747 12.1937 15.3747C11.7711 15.3747 11.4049 15.2346 11.0951 14.9544C10.7852 14.6742 10.6444 14.2819 10.6162 13.7775H10.5035C10.1092 14.1698 9.65845 14.5341 9.12324 14.8704C8.58803 15.2066 8.02465 15.3747 7.40493 15.3747C6.86972 15.3747 6.39085 15.2627 5.96831 15.0665C5.54577 14.8704 5.17958 14.5901 4.89789 14.2259C4.6162 13.8896 4.39085 13.4693 4.22183 12.9929C4.05282 12.5166 3.99648 12.0122 3.99648 11.4517C3.99648 10.6391 4.13732 9.82649 4.39085 9.04189C4.64437 8.25729 5.03873 7.52873 5.51761 6.91226C5.99648 6.29579 6.58803 5.7914 7.29225 5.3991C7.99648 5.0068 8.75704 4.83868 9.60211 4.83868C10.1937 4.83868 10.7289 4.97878 11.2077 5.28702C11.6866 5.56723 12.0528 6.07162 12.2782 6.74413H12.3345L12.7289 5.31504H14.5599L12.4472 12.2083V12.3204ZM9.71479 6.88424C9.12324 6.88424 8.6162 7.02435 8.16549 7.27654C7.71479 7.52873 7.32042 7.89301 7.03873 8.31333C6.72887 8.76168 6.50352 9.26606 6.33451 9.79847C6.16549 10.3589 6.10915 10.9193 6.10915 11.5358C6.10915 12.1523 6.25 12.6286 6.53169 12.9929C6.81338 13.3572 7.26408 13.5253 7.8838 13.5253C8.39085 13.5253 8.84155 13.3852 9.26408 13.077C9.68662 12.7968 10.0528 12.4325 10.3627 11.9841C10.6725 11.5638 10.8979 11.0875 11.0669 10.555C11.2359 10.0226 11.3204 9.51826 11.3204 9.04189C11.3204 8.45344 11.1796 7.94906 10.9261 7.50071C10.6725 7.05237 10.2782 6.8282 9.74296 6.8282L9.71479 6.88424Z" fill="#D2EBFE"/>
</svg>
