<svg width="17" height="22" viewBox="0 0 17 22" fill="none" xmlns="http://www.w3.org/2000/svg">
<path d="M8.5 12.8036C7.75832 12.8036 7.0333 12.5837 6.41661 12.1716C5.79993 11.7595 5.31928 11.1739 5.03545 10.4887C4.75162 9.80343 4.67736 9.04943 4.82206 8.322C4.96675 7.59457 5.3239 6.92639 5.84835 6.40194C6.3728 5.87749 7.04098 5.52034 7.76841 5.37565C8.49584 5.23095 9.24984 5.30521 9.93507 5.58904C10.6203 5.87287 11.206 6.35352 11.618 6.9702C12.0301 7.58689 12.25 8.31191 12.25 9.05359C12.2488 10.0478 11.8533 11.0009 11.1503 11.7039C10.4473 12.4069 9.4942 12.8024 8.5 12.8036ZM8.5 6.80359C8.05499 6.80359 7.61998 6.93555 7.24997 7.18278C6.87996 7.43002 6.59157 7.78142 6.42127 8.19255C6.25098 8.60369 6.20642 9.05609 6.29323 9.49254C6.38005 9.929 6.59434 10.3299 6.90901 10.6446C7.22368 10.9592 7.62459 11.1735 8.06105 11.2604C8.49751 11.3472 8.94991 11.3026 9.36104 11.1323C9.77217 10.962 10.1236 10.6736 10.3708 10.3036C10.618 9.93361 10.75 9.4986 10.75 9.05359C10.7494 8.45704 10.5122 7.88509 10.0903 7.46326C9.66851 7.04143 9.09656 6.80419 8.5 6.80359Z" fill="#D2EBFE"/>
<path d="M8.5 21.8036L2.17301 14.3418C2.08509 14.2298 1.99809 14.117 1.91201 14.0036C0.831786 12.5796 0.247994 10.8409 0.250005 9.05359C0.250005 6.86555 1.1192 4.76713 2.66637 3.21996C4.21355 1.67278 6.31197 0.803589 8.5 0.803589C10.688 0.803589 12.7865 1.67278 14.3336 3.21996C15.8808 4.76713 16.75 6.86555 16.75 9.05359C16.7517 10.8401 16.1682 12.5779 15.0888 14.0013L15.088 14.0036C15.088 14.0036 14.863 14.2991 14.8293 14.3388L8.5 21.8036ZM3.10975 13.0998C3.10975 13.0998 3.2845 13.3308 3.32425 13.3803L8.5 19.4846L13.6825 13.3721C13.7155 13.3308 13.891 13.0983 13.8918 13.0976C14.7747 11.9345 15.2518 10.5139 15.25 9.05359C15.25 7.26338 14.5388 5.54649 13.273 4.28062C12.0071 3.01475 10.2902 2.30359 8.5 2.30359C6.70979 2.30359 4.9929 3.01475 3.72703 4.28062C2.46116 5.54649 1.75001 7.26338 1.75001 9.05359C1.74815 10.5148 2.22584 11.9363 3.10975 13.0998Z" fill="#D2EBFE"/>
</svg>
