<svg width="215" height="62" viewBox="0 0 215 62" fill="none" xmlns="http://www.w3.org/2000/svg">
<g clip-path="url(#clip0_3013_282)">
<path d="M14.7626 0.5L1.50764 23.4614L0 26.074L1.50764 28.6826L14.7248 51.5724H30.5983L37.5027 31.8566L48.482 0.5H14.7626ZM27.3932 44.5659H19.0024L8.32288 26.0746L19.0024 7.58322H27.3932L16.7096 26.0746L27.3932 44.5659Z" fill="#414042"/>
<path d="M82.4924 33.3215L69.2752 10.4275H53.4017L46.4972 30.1433L35.518 61.4999H69.2327L82.4924 38.5385L84 35.9258L82.4924 33.3215ZM64.9976 54.4172H56.6068L67.2904 35.9253L56.6068 17.434H64.9976L75.673 35.9253L64.9976 54.4172Z" fill="#414042"/>
</g>
<path d="M92.75 19.625H95.15V21.25C95.15 21.6 95.2667 21.9 95.5 22.15C95.75 22.3833 96.05 22.5 96.4 22.5H96.85C97.2 22.5 97.4917 22.3833 97.725 22.15C97.975 21.9 98.1 21.6 98.1 21.25V18.35C98.1 18 97.975 17.7083 97.725 17.475C97.4917 17.225 97.2 17.1 96.85 17.1H96.2V14.85H96.85C97.2 14.85 97.4917 14.7333 97.725 14.5C97.975 14.25 98.1 13.95 98.1 13.6V12.45C98.1 12 98.0333 11.6333 97.9 11.35C97.7833 11.0667 97.5583 10.825 97.225 10.625L95.675 9.7C94.625 9.08333 94.1 8.3 94.1 7.35V7H96.5V7.175C96.5 7.525 96.7417 7.84167 97.225 8.125L98.875 9.1C99.525 9.48333 99.9583 9.90833 100.175 10.375C100.392 10.8417 100.5 11.55 100.5 12.5V13.7C100.5 14.1667 100.4 14.6083 100.2 15.025C100 15.425 99.725 15.7333 99.375 15.95C99.725 16.1667 100 16.4917 100.2 16.925C100.4 17.3417 100.5 17.7833 100.5 18.25V21.25C100.5 21.8833 100.342 22.4667 100.025 23C99.7083 23.5333 99.2833 23.9583 98.75 24.275C98.2167 24.5917 97.6333 24.75 97 24.75H96.25C95.6167 24.75 95.0333 24.5917 94.5 24.275C93.9667 23.9583 93.5417 23.5333 93.225 23C92.9083 22.4667 92.75 21.8833 92.75 21.25V19.625ZM102.76 17.575C102.76 16.9583 102.868 16.4583 103.085 16.075C103.318 15.675 103.601 15.3 103.935 14.95L108.335 10.25C108.851 9.7 109.251 9.175 109.535 8.675C109.818 8.175 109.96 7.64167 109.96 7.075H112.36C112.36 7.90833 112.193 8.65 111.86 9.3C111.526 9.93333 110.951 10.6833 110.135 11.55L107.11 14.8V14.85C107.793 14.9333 108.326 15.2667 108.71 15.85C108.893 15.5667 109.185 15.325 109.585 15.125C110.001 14.925 110.426 14.825 110.86 14.825H111.21C112.026 14.825 112.718 15.1083 113.285 15.675C113.851 16.2417 114.135 16.9333 114.135 17.75V24.475H111.735V18.075C111.735 17.7917 111.635 17.5583 111.435 17.375C111.251 17.175 111.018 17.075 110.735 17.075H110.585C110.301 17.075 110.06 17.1667 109.86 17.35C109.676 17.5333 109.585 17.775 109.585 18.075V21.5H107.31V18.075C107.31 17.7917 107.21 17.5583 107.01 17.375C106.826 17.175 106.593 17.075 106.31 17.075H106.16C105.876 17.075 105.635 17.1667 105.435 17.35C105.251 17.5333 105.16 17.775 105.16 18.075V24.475H102.76V17.575ZM121.308 10.25C121.308 9.9 121.183 9.60833 120.933 9.375C120.699 9.125 120.408 9 120.058 9H120.033C119.683 9 119.383 9.125 119.133 9.375C118.899 9.60833 118.783 9.9 118.783 10.25V24.5H116.383V10.25C116.383 9.61667 116.541 9.03333 116.858 8.5C117.174 7.96667 117.599 7.54167 118.133 7.225C118.666 6.90833 119.249 6.75 119.883 6.75H120.158C120.591 6.75 121.033 6.85833 121.483 7.075C121.933 7.29167 122.274 7.56667 122.508 7.9C122.741 7.56667 123.083 7.29167 123.533 7.075C123.983 6.85833 124.424 6.75 124.858 6.75H125.133C125.766 6.75 126.349 6.90833 126.883 7.225C127.416 7.54167 127.841 7.96667 128.158 8.5C128.474 9.03333 128.633 9.61667 128.633 10.25V24.5H126.233V10.25C126.233 9.9 126.108 9.60833 125.858 9.375C125.624 9.125 125.333 9 124.983 9H124.958C124.608 9 124.308 9.125 124.058 9.375C123.824 9.60833 123.708 9.9 123.708 10.25V17.15H121.308V10.25ZM130.885 17.25C130.885 16.35 131.193 15.5667 131.81 14.9C132.426 14.2333 133.176 13.8583 134.06 13.775C134.876 12.6583 135.285 11.4917 135.285 10.275C135.285 9.425 134.985 9 134.385 9H134.31C133.71 9 133.41 9.40833 133.41 10.225V10.675H131.01V10.25C131.01 9.25 131.31 8.41667 131.91 7.75C132.51 7.08333 133.285 6.75 134.235 6.75H134.46C135.41 6.75 136.185 7.08333 136.785 7.75C137.385 8.41667 137.685 9.25 137.685 10.25C137.685 10.9167 137.593 11.55 137.41 12.15C137.226 12.75 136.926 13.3833 136.51 14.05C137.143 14.3333 137.651 14.7667 138.035 15.35C138.435 15.9167 138.635 16.55 138.635 17.25V21.25C138.635 21.8833 138.476 22.4667 138.16 23C137.843 23.5333 137.418 23.9583 136.885 24.275C136.351 24.5917 135.768 24.75 135.135 24.75H134.385C133.751 24.75 133.168 24.5917 132.635 24.275C132.101 23.9583 131.676 23.5333 131.36 23C131.043 22.4667 130.885 21.8833 130.885 21.25V17.25ZM133.285 21.25C133.285 21.6 133.401 21.9 133.635 22.15C133.885 22.3833 134.185 22.5 134.535 22.5H134.985C135.335 22.5 135.626 22.3833 135.86 22.15C136.11 21.9 136.235 21.6 136.235 21.25V17.25C136.235 16.9 136.11 16.6083 135.86 16.375C135.626 16.125 135.335 16 134.985 16H134.535C134.185 16 133.885 16.125 133.635 16.375C133.401 16.6083 133.285 16.9 133.285 17.25V21.25ZM140.895 17.575C140.895 16.9583 141.003 16.4583 141.22 16.075C141.453 15.675 141.736 15.3 142.07 14.95L146.47 10.25C146.986 9.7 147.386 9.175 147.67 8.675C147.953 8.175 148.095 7.64167 148.095 7.075H150.495C150.495 7.90833 150.328 8.65 149.995 9.3C149.661 9.93333 149.086 10.6833 148.27 11.55L145.245 14.8V14.85C145.928 14.9333 146.461 15.2667 146.845 15.85C147.028 15.5667 147.32 15.325 147.72 15.125C148.136 14.925 148.561 14.825 148.995 14.825H149.345C150.161 14.825 150.853 15.1083 151.42 15.675C151.986 16.2417 152.27 16.9333 152.27 17.75V24.475H149.87V18.075C149.87 17.7917 149.77 17.5583 149.57 17.375C149.386 17.175 149.153 17.075 148.87 17.075H148.72C148.436 17.075 148.195 17.1667 147.995 17.35C147.811 17.5333 147.72 17.775 147.72 18.075V21.5H145.445V18.075C145.445 17.7917 145.345 17.5583 145.145 17.375C144.961 17.175 144.728 17.075 144.445 17.075H144.295C144.011 17.075 143.77 17.1667 143.57 17.35C143.386 17.5333 143.295 17.775 143.295 18.075V24.475H140.895V17.575ZM154.518 17.15H156.918V21.25C156.918 21.6 157.034 21.9 157.268 22.15C157.518 22.3833 157.818 22.5 158.168 22.5H158.618C158.968 22.5 159.259 22.3833 159.493 22.15C159.743 21.9 159.868 21.6 159.868 21.25V13.325C159.868 12.9083 159.801 12.5583 159.668 12.275C159.534 11.9917 159.309 11.725 158.993 11.475L156.968 9.875C156.551 9.54167 156.243 9.21667 156.043 8.9C155.843 8.56667 155.743 8.15833 155.743 7.675V7H158.143V7.25C158.143 7.56667 158.201 7.81667 158.318 8C158.451 8.16667 158.601 8.31667 158.768 8.45C158.951 8.58333 159.076 8.675 159.143 8.725L160.818 10.05C161.418 10.5167 161.809 10.9583 161.993 11.375C162.176 11.7917 162.268 12.4583 162.268 13.375V21.25C162.268 21.8833 162.109 22.4667 161.793 23C161.476 23.5333 161.051 23.9583 160.518 24.275C159.984 24.5917 159.401 24.75 158.768 24.75H158.018C157.384 24.75 156.801 24.5917 156.268 24.275C155.734 23.9583 155.309 23.5333 154.993 23C154.676 22.4667 154.518 21.8833 154.518 21.25V17.15ZM168.177 13.75C168.494 13.75 168.802 13.8 169.102 13.9C169.419 13.9833 169.661 14.075 169.827 14.175H169.877V10.25C169.877 9.9 169.752 9.60833 169.502 9.375C169.269 9.125 168.977 9 168.627 9H168.302C167.952 9 167.652 9.125 167.402 9.375C167.169 9.60833 167.052 9.9 167.052 10.25V11.025H164.652V10.25C164.652 9.61667 164.811 9.03333 165.127 8.5C165.444 7.96667 165.869 7.54167 166.402 7.225C166.936 6.90833 167.519 6.75 168.152 6.75H168.777C169.411 6.75 169.994 6.90833 170.527 7.225C171.061 7.54167 171.486 7.96667 171.802 8.5C172.119 9.03333 172.277 9.61667 172.277 10.25V21.25C172.277 21.8833 172.119 22.4667 171.802 23C171.486 23.5333 171.061 23.9583 170.527 24.275C169.994 24.5917 169.411 24.75 168.777 24.75H168.027C167.394 24.75 166.811 24.5917 166.277 24.275C165.744 23.9583 165.319 23.5333 165.002 23C164.686 22.4667 164.527 21.8833 164.527 21.25V17.25C164.527 16.6167 164.686 16.0333 165.002 15.5C165.319 14.9667 165.744 14.5417 166.277 14.225C166.811 13.9083 167.394 13.75 168.027 13.75H168.177ZM166.927 21.25C166.927 21.6 167.044 21.9 167.277 22.15C167.527 22.3833 167.827 22.5 168.177 22.5H168.627C168.977 22.5 169.269 22.3833 169.502 22.15C169.752 21.9 169.877 21.6 169.877 21.25V17.25C169.877 16.9 169.752 16.6083 169.502 16.375C169.269 16.125 168.977 16 168.627 16H168.177C167.827 16 167.527 16.125 167.277 16.375C167.044 16.6083 166.927 16.9 166.927 17.25V21.25ZM175.199 6.75C175.649 6.75 176.058 6.84167 176.424 7.025C176.808 7.19167 177.116 7.45 177.349 7.8C177.549 7.45 177.849 7.19167 178.249 7.025C178.666 6.84167 179.099 6.75 179.549 6.75H179.899C180.733 6.75 181.441 7.05 182.024 7.65C182.624 8.23333 182.924 8.94167 182.924 9.775V21.25C182.924 21.8833 182.766 22.4667 182.449 23C182.133 23.5333 181.708 23.9583 181.174 24.275C180.641 24.5917 180.058 24.75 179.424 24.75H178.674C178.041 24.75 177.458 24.5917 176.924 24.275C176.391 23.9583 175.966 23.5333 175.649 23C175.333 22.45 175.174 21.8667 175.174 21.25V18.2H177.574V21.25C177.574 21.6 177.691 21.9 177.924 22.15C178.174 22.3833 178.474 22.5 178.824 22.5H179.274C179.624 22.5 179.916 22.3833 180.149 22.15C180.399 21.9 180.524 21.6 180.524 21.25V9.9C180.524 9.66667 180.433 9.45833 180.249 9.275C180.083 9.09167 179.891 9 179.674 9H179.474C179.224 9 179.008 9.09167 178.824 9.275C178.658 9.45833 178.574 9.66667 178.574 9.9V12.975H176.174V9.9C176.174 9.66667 176.083 9.45833 175.899 9.275C175.733 9.09167 175.524 9 175.274 9H174.024V6.75H175.199ZM185.382 9.575C185.382 8.79167 185.657 8.125 186.207 7.575C186.773 7.025 187.44 6.75 188.207 6.75H188.782C189.215 6.75 189.623 6.85833 190.007 7.075C190.407 7.275 190.723 7.54167 190.957 7.875C191.173 7.54167 191.473 7.275 191.857 7.075C192.257 6.85833 192.673 6.75 193.107 6.75H193.207C193.623 6.75 194.023 6.85833 194.407 7.075C194.807 7.275 195.115 7.54167 195.332 7.875C195.565 7.54167 195.873 7.275 196.257 7.075C196.657 6.85833 197.065 6.75 197.482 6.75H198.057C198.84 6.75 199.507 7.025 200.057 7.575C200.607 8.125 200.882 8.79167 200.882 9.575V15.1H198.482V9.975C198.482 9.70833 198.39 9.48333 198.207 9.3C198.023 9.1 197.798 9 197.532 9H197.407C197.107 9 196.865 9.09167 196.682 9.275C196.515 9.45833 196.432 9.69167 196.432 9.975V13.5H194.157V9.975C194.157 9.70833 194.065 9.48333 193.882 9.3C193.698 9.1 193.473 9 193.207 9H193.082C192.798 9 192.565 9.09167 192.382 9.275C192.198 9.45833 192.107 9.69167 192.107 9.975V13.5H189.832V9.975C189.832 9.70833 189.74 9.48333 189.557 9.3C189.373 9.1 189.148 9 188.882 9H188.757C188.473 9 188.24 9.09167 188.057 9.275C187.873 9.45833 187.782 9.69167 187.782 9.975V14.95C187.782 15.45 187.923 15.8833 188.207 16.25C188.507 16.6 188.857 16.8917 189.257 17.125C189.657 17.3417 190.223 17.6167 190.957 17.95C191.29 18.0833 191.54 18.1917 191.707 18.275L193.407 19.075C194.973 19.8083 196.182 20.475 197.032 21.075C197.882 21.6583 198.473 22.2167 198.807 22.75C199.14 23.2833 199.307 23.8667 199.307 24.5H196.907C196.84 23.85 196.165 23.1417 194.882 22.375C193.615 21.5917 192.282 20.9083 190.882 20.325C189.348 19.675 187.99 19.175 186.807 18.825C186.457 18.725 185.915 18.6417 185.182 18.575V16.175L185.782 16.2V16.15C185.665 15.9833 185.565 15.7667 185.482 15.5C185.415 15.2167 185.382 14.9167 185.382 14.6V9.575ZM208.5 24.5V10.25C208.5 9.9 208.375 9.60833 208.125 9.375C207.892 9.125 207.6 9 207.25 9H206.8C206.45 9 206.15 9.125 205.9 9.375C205.667 9.60833 205.55 9.9 205.55 10.25V24.5H203.15V10.25C203.15 9.61667 203.309 9.03333 203.625 8.5C203.942 7.96667 204.367 7.54167 204.9 7.225C205.434 6.90833 206.017 6.75 206.65 6.75H207.4C208.034 6.75 208.617 6.90833 209.15 7.225C209.684 7.54167 210.109 7.96667 210.425 8.5C210.742 9.03333 210.9 9.61667 210.9 10.25V24.5H208.5ZM100.5 40.8C100.5 41.2833 100.4 41.775 100.2 42.275C100 42.7583 99.7333 43.1083 99.4 43.325C99.75 43.5417 100.017 43.8583 100.2 44.275C100.4 44.6917 100.5 45.1333 100.5 45.6V51.25C100.5 51.8833 100.342 52.4667 100.025 53C99.7083 53.5333 99.2833 53.9583 98.75 54.275C98.2167 54.5917 97.6333 54.75 97 54.75H96.25C95.6167 54.75 95.0333 54.5917 94.5 54.275C93.9667 53.9583 93.5417 53.5333 93.225 53C92.9083 52.4667 92.75 51.8833 92.75 51.25V48.25H95.15V51.25C95.15 51.6 95.2667 51.9 95.5 52.15C95.75 52.3833 96.05 52.5 96.4 52.5H96.85C97.2 52.5 97.4917 52.3833 97.725 52.15C97.975 51.9 98.1 51.6 98.1 51.25V45.7C98.1 45.35 97.975 45.0583 97.725 44.825C97.4917 44.575 97.2 44.45 96.85 44.45H96.2V42.2H96.85C97.1833 42.2 97.475 42.0417 97.725 41.725C97.975 41.4083 98.1 41.0667 98.1 40.7V37H100.5V40.8ZM107.685 40.25C107.685 39.9 107.56 39.6083 107.31 39.375C107.076 39.125 106.785 39 106.435 39H106.41C106.06 39 105.76 39.125 105.51 39.375C105.276 39.6083 105.16 39.9 105.16 40.25V54.5H102.76V40.25C102.76 39.6167 102.918 39.0333 103.235 38.5C103.551 37.9667 103.976 37.5417 104.51 37.225C105.043 36.9083 105.626 36.75 106.26 36.75H106.535C106.968 36.75 107.41 36.8583 107.86 37.075C108.31 37.2917 108.651 37.5667 108.885 37.9C109.118 37.5667 109.46 37.2917 109.91 37.075C110.36 36.8583 110.801 36.75 111.235 36.75H111.51C112.143 36.75 112.726 36.9083 113.26 37.225C113.793 37.5417 114.218 37.9667 114.535 38.5C114.851 39.0333 115.01 39.6167 115.01 40.25V54.5H112.61V40.25C112.61 39.9 112.485 39.6083 112.235 39.375C112.001 39.125 111.71 39 111.36 39H111.335C110.985 39 110.685 39.125 110.435 39.375C110.201 39.6083 110.085 39.9 110.085 40.25V47.15H107.685V40.25ZM117.262 46.65H117.812C117.628 46.2333 117.537 45.7833 117.537 45.3V39.725C117.537 38.8583 117.812 38.15 118.362 37.6C118.928 37.0333 119.628 36.75 120.462 36.75H121.237C121.603 36.75 121.97 36.8417 122.337 37.025C122.72 37.2083 123.003 37.45 123.187 37.75C123.37 37.45 123.662 37.2083 124.062 37.025C124.478 36.8417 124.862 36.75 125.212 36.75H125.987C126.753 36.75 127.387 37.025 127.887 37.575C128.403 38.125 128.662 38.8 128.662 39.6V42.75C128.662 43.65 128.37 44.3917 127.787 44.975C127.22 45.5583 126.537 45.85 125.737 45.85H124.837C124.037 45.85 123.345 45.5583 122.762 44.975C122.195 44.3917 121.912 43.65 121.912 42.75V39.9C121.912 39.6333 121.828 39.4167 121.662 39.25C121.512 39.0833 121.295 39 121.012 39H120.837C120.553 39 120.328 39.0833 120.162 39.25C120.012 39.4167 119.937 39.6333 119.937 39.9V44.875C119.937 45.4417 120.003 45.95 120.137 46.4C120.287 46.8333 120.603 47.2 121.087 47.5L122.787 48.55C124.353 49.5167 125.537 50.3333 126.337 51C127.137 51.65 127.67 52.2417 127.937 52.775C128.22 53.2917 128.362 53.8667 128.362 54.5H125.962C125.912 53.9333 125.462 53.3 124.612 52.6C123.762 51.9 122.778 51.25 121.662 50.65C120.545 50.05 119.62 49.625 118.887 49.375C118.403 49.2083 117.862 49.1 117.262 49.05V46.65ZM124.287 42.7C124.287 42.9667 124.362 43.1833 124.512 43.35C124.678 43.5167 124.903 43.6 125.187 43.6H125.362C125.645 43.6 125.862 43.5167 126.012 43.35C126.178 43.1833 126.262 42.9667 126.262 42.7V39.9C126.262 39.6333 126.178 39.4167 126.012 39.25C125.862 39.0833 125.645 39 125.362 39H125.187C124.903 39 124.678 39.0833 124.512 39.25C124.362 39.4167 124.287 39.6333 124.287 39.9V42.7ZM136.259 54.5V40.25C136.259 39.9 136.134 39.6083 135.884 39.375C135.651 39.125 135.359 39 135.009 39H134.559C134.209 39 133.909 39.125 133.659 39.375C133.426 39.6083 133.309 39.9 133.309 40.25V54.5H130.909V40.25C130.909 39.6167 131.068 39.0333 131.384 38.5C131.701 37.9667 132.126 37.5417 132.659 37.225C133.193 36.9083 133.776 36.75 134.409 36.75H135.159C135.793 36.75 136.376 36.9083 136.909 37.225C137.443 37.5417 137.868 37.9667 138.184 38.5C138.501 39.0333 138.659 39.6167 138.659 40.25V54.5H136.259ZM143.319 51.25C143.319 51.6 143.436 51.9 143.669 52.15C143.919 52.3833 144.219 52.5 144.569 52.5H145.019C145.369 52.5 145.661 52.3833 145.894 52.15C146.144 51.9 146.269 51.6 146.269 51.25V46H148.669V51.25C148.669 51.8833 148.511 52.4667 148.194 53C147.877 53.5333 147.452 53.9583 146.919 54.275C146.386 54.5917 145.802 54.75 145.169 54.75H144.419C143.786 54.75 143.202 54.5917 142.669 54.275C142.136 53.9583 141.711 53.5333 141.394 53C141.077 52.4667 140.919 51.8833 140.919 51.25V37H143.319V51.25ZM156.454 51.25C156.454 51.6 156.57 51.9 156.804 52.15C157.054 52.3833 157.354 52.5 157.704 52.5H158.154C158.504 52.5 158.795 52.3833 159.029 52.15C159.279 51.9 159.404 51.6 159.404 51.25V46H161.804V51.25C161.804 51.8833 161.645 52.4667 161.329 53C161.012 53.5333 160.587 53.9583 160.054 54.275C159.52 54.5917 158.937 54.75 158.304 54.75H157.554C156.92 54.75 156.337 54.5917 155.804 54.275C155.27 53.9583 154.845 53.5333 154.529 53C154.212 52.4667 154.054 51.8833 154.054 51.25V37H156.454V51.25ZM171.545 40.8C171.545 41.2833 171.445 41.775 171.245 42.275C171.045 42.7583 170.778 43.1083 170.445 43.325C170.795 43.5417 171.062 43.8583 171.245 44.275C171.445 44.6917 171.545 45.1333 171.545 45.6V51.25C171.545 51.8833 171.387 52.4667 171.07 53C170.753 53.5333 170.328 53.9583 169.795 54.275C169.262 54.5917 168.678 54.75 168.045 54.75H167.295C166.662 54.75 166.078 54.5917 165.545 54.275C165.012 53.9583 164.587 53.5333 164.27 53C163.953 52.4667 163.795 51.8833 163.795 51.25V48.25H166.195V51.25C166.195 51.6 166.312 51.9 166.545 52.15C166.795 52.3833 167.095 52.5 167.445 52.5H167.895C168.245 52.5 168.537 52.3833 168.77 52.15C169.02 51.9 169.145 51.6 169.145 51.25V45.7C169.145 45.35 169.02 45.0583 168.77 44.825C168.537 44.575 168.245 44.45 167.895 44.45H167.245V42.2H167.895C168.228 42.2 168.52 42.0417 168.77 41.725C169.02 41.4083 169.145 41.0667 169.145 40.7V37H171.545V40.8ZM178.73 40.25C178.73 39.9 178.605 39.6083 178.355 39.375C178.121 39.125 177.83 39 177.48 39H177.455C177.105 39 176.805 39.125 176.555 39.375C176.321 39.6083 176.205 39.9 176.205 40.25V54.5H173.805V40.25C173.805 39.6167 173.963 39.0333 174.28 38.5C174.596 37.9667 175.021 37.5417 175.555 37.225C176.088 36.9083 176.671 36.75 177.305 36.75H177.58C178.013 36.75 178.455 36.8583 178.905 37.075C179.355 37.2917 179.696 37.5667 179.93 37.9C180.163 37.5667 180.505 37.2917 180.955 37.075C181.405 36.8583 181.846 36.75 182.28 36.75H182.555C183.188 36.75 183.771 36.9083 184.305 37.225C184.838 37.5417 185.263 37.9667 185.58 38.5C185.896 39.0333 186.055 39.6167 186.055 40.25V54.5H183.655V40.25C183.655 39.9 183.53 39.6083 183.28 39.375C183.046 39.125 182.755 39 182.405 39H182.38C182.03 39 181.73 39.125 181.48 39.375C181.246 39.6083 181.13 39.9 181.13 40.25V47.15H178.73V40.25ZM188.507 39.575C188.507 38.7917 188.782 38.125 189.332 37.575C189.898 37.025 190.565 36.75 191.332 36.75H191.907C192.34 36.75 192.748 36.8583 193.132 37.075C193.532 37.275 193.848 37.5417 194.082 37.875C194.298 37.5417 194.598 37.275 194.982 37.075C195.382 36.8583 195.798 36.75 196.232 36.75H196.332C196.748 36.75 197.148 36.8583 197.532 37.075C197.932 37.275 198.24 37.5417 198.457 37.875C198.69 37.5417 198.998 37.275 199.382 37.075C199.782 36.8583 200.19 36.75 200.607 36.75H201.182C201.965 36.75 202.632 37.025 203.182 37.575C203.732 38.125 204.007 38.7917 204.007 39.575V45.1H201.607V39.975C201.607 39.7083 201.515 39.4833 201.332 39.3C201.148 39.1 200.923 39 200.657 39H200.532C200.232 39 199.99 39.0917 199.807 39.275C199.64 39.4583 199.557 39.6917 199.557 39.975V43.5H197.282V39.975C197.282 39.7083 197.19 39.4833 197.007 39.3C196.823 39.1 196.598 39 196.332 39H196.207C195.923 39 195.69 39.0917 195.507 39.275C195.323 39.4583 195.232 39.6917 195.232 39.975V43.5H192.957V39.975C192.957 39.7083 192.865 39.4833 192.682 39.3C192.498 39.1 192.273 39 192.007 39H191.882C191.598 39 191.365 39.0917 191.182 39.275C190.998 39.4583 190.907 39.6917 190.907 39.975V44.95C190.907 45.45 191.048 45.8833 191.332 46.25C191.632 46.6 191.982 46.8917 192.382 47.125C192.782 47.3417 193.348 47.6167 194.082 47.95C194.415 48.0833 194.665 48.1917 194.832 48.275L196.532 49.075C198.098 49.8083 199.307 50.475 200.157 51.075C201.007 51.6583 201.598 52.2167 201.932 52.75C202.265 53.2833 202.432 53.8667 202.432 54.5H200.032C199.965 53.85 199.29 53.1417 198.007 52.375C196.74 51.5917 195.407 50.9083 194.007 50.325C192.473 49.675 191.115 49.175 189.932 48.825C189.582 48.725 189.04 48.6417 188.307 48.575V46.175L188.907 46.2V46.15C188.79 45.9833 188.69 45.7667 188.607 45.5C188.54 45.2167 188.507 44.9167 188.507 44.6V39.575ZM206.275 47.15H208.675V51.25C208.675 51.6 208.792 51.9 209.025 52.15C209.275 52.3833 209.575 52.5 209.925 52.5H210.375C210.725 52.5 211.017 52.3833 211.25 52.15C211.5 51.9 211.625 51.6 211.625 51.25V43.325C211.625 42.9083 211.559 42.5583 211.425 42.275C211.292 41.9917 211.067 41.725 210.75 41.475L208.725 39.875C208.309 39.5417 208 39.2167 207.8 38.9C207.6 38.5667 207.5 38.1583 207.5 37.675V37H209.9V37.25C209.9 37.5667 209.959 37.8167 210.075 38C210.209 38.1667 210.359 38.3167 210.525 38.45C210.709 38.5833 210.834 38.675 210.9 38.725L212.575 40.05C213.175 40.5167 213.567 40.9583 213.75 41.375C213.934 41.7917 214.025 42.4583 214.025 43.375V51.25C214.025 51.8833 213.867 52.4667 213.55 53C213.234 53.5333 212.809 53.9583 212.275 54.275C211.742 54.5917 211.159 54.75 210.525 54.75H209.775C209.142 54.75 208.559 54.5917 208.025 54.275C207.492 53.9583 207.067 53.5333 206.75 53C206.434 52.4667 206.275 51.8833 206.275 51.25V47.15Z" fill="black"/>
<defs>
<clipPath id="clip0_3013_282">
<rect width="84" height="61" fill="white" transform="translate(0 0.5)"/>
</clipPath>
</defs>
</svg>
