<svg width="18" height="18" viewBox="0 0 18 18" fill="none" xmlns="http://www.w3.org/2000/svg">
<path d="M0.9582 1.99973C1.23989 1.74753 1.49341 1.49534 1.74693 1.24315L1.83144 1.15908C1.97228 1.01898 2.11313 0.878868 2.28214 0.738761C2.98637 0.0662463 3.85961 0.0662463 4.53567 0.738761L6.84552 3.03652C7.18355 3.34475 7.35257 3.73706 7.35257 4.12936C7.35257 4.52166 7.18355 4.88593 6.84552 5.22219L5.4089 6.65129C5.4089 6.65129 5.3244 6.76337 5.3244 6.81941C5.3244 6.81941 5.3244 6.84744 5.3244 6.9315C5.4089 7.07161 5.49341 7.23974 5.57792 7.37984C5.66243 7.51995 5.71876 7.68808 5.83144 7.82819C6.64834 9.11717 7.71876 10.2661 9.07088 11.3869C9.83144 11.9754 10.4512 12.3677 11.099 12.6199C11.2399 12.6759 11.2681 12.6759 11.3807 12.5638C11.7188 12.1995 12.0286 11.8913 12.423 11.499C12.5075 11.4149 12.592 11.3309 12.6765 11.2468L12.7892 11.1347C13.4934 10.4342 14.3385 10.4342 15.0427 11.1347L16.1976 12.2836C16.1976 12.2836 16.3385 12.4237 16.3948 12.4797C16.4512 12.5358 16.5357 12.6199 16.592 12.6759C16.8737 12.9561 17.1272 13.2083 17.3526 13.4325C17.6624 13.7687 17.8314 14.133 17.8314 14.5253C17.8314 14.9176 17.6624 15.2819 17.3526 15.6181L15.9159 17.0472C15.4652 17.4956 14.9019 17.7758 14.254 17.8038C13.3807 17.8879 12.4793 17.7198 11.3244 17.2994C9.52158 16.6549 7.85961 15.6462 6.08496 14.1891C3.94412 12.3957 2.25398 10.238 1.04271 7.80016C0.67651 6.87546 0.169468 5.64251 0.0849609 4.29748C0.0849609 4.21342 0.0849609 4.12936 0.0849609 4.07331C0.0849609 3.20465 0.366651 2.53213 0.9582 1.99973ZM16.592 14.5253C16.592 14.5253 16.592 14.4693 16.4793 14.3852C16.254 14.161 16.0286 13.9369 15.7469 13.6566C15.6906 13.6006 15.6061 13.5165 15.5497 13.4605C15.4934 13.4045 15.4089 13.3204 15.3244 13.2643L14.1695 12.1155L14.0005 11.9754C14.0005 11.9754 13.9159 12.0034 13.8033 12.1155L13.6906 12.2276C13.6906 12.2276 13.5216 12.3677 13.4652 12.4517C13.099 12.816 12.7892 13.1242 12.4793 13.4605C12.4793 13.4605 12.4512 13.5165 12.3948 13.5446C11.9441 13.9649 11.4089 14.077 10.7892 13.8808H10.761C10.761 13.8808 10.7328 13.8808 10.7047 13.8528C9.94412 13.5446 9.18355 13.0962 8.33848 12.3957C6.84552 11.1908 5.6906 9.92979 4.81736 8.52872C4.67651 8.33257 4.592 8.1084 4.5075 7.94027C4.45116 7.80016 4.36665 7.68808 4.31031 7.57599C4.31031 7.54797 4.28214 7.51995 4.25397 7.49193C4.1413 7.26776 4.08496 7.01556 4.08496 6.79139C4.08496 6.37107 4.25398 6.00679 4.56383 5.67054L6.00045 4.24144L6.11313 4.10133C6.11313 4.10133 6.08496 4.04529 6.02862 3.98925L3.69059 1.66347L3.52158 1.55138C3.52158 1.55138 3.43707 1.55138 3.35257 1.66347C3.35257 1.66347 3.3244 1.69149 3.29623 1.71951C3.18355 1.8316 3.04271 1.94368 2.93003 2.08379L2.84552 2.16785C2.592 2.44807 2.28214 2.72828 1.97228 3.0085C1.66243 3.31673 1.52158 3.62497 1.52158 4.07331C1.52158 4.12936 1.52158 4.1854 1.52158 4.21342C1.60609 5.33428 2.05679 6.42711 2.45116 7.23974C3.54975 9.50947 5.12721 11.527 7.12721 13.1803C8.78919 14.5533 10.3385 15.478 11.9723 16.0945C12.93 16.4588 13.6343 16.5709 14.3103 16.5148C14.6483 16.5148 14.9019 16.3747 15.1272 16.1225L16.5638 14.6934L16.6765 14.5253H16.592Z" fill="#D2EBFE"/>
<path d="M13.9155 17.916C13.1549 17.916 12.3662 17.7479 11.3803 17.3836C9.57747 16.7111 7.91549 15.7303 6.11268 14.2452C3.94366 12.4518 2.25352 10.2942 1.07042 7.82829C0.619718 6.90358 0.084507 5.67063 0 4.29758C0 4.21352 0 4.12946 0 4.07341C0 3.20475 0.309859 2.53223 0.901408 1.94378C1.1831 1.69159 1.43662 1.4394 1.69014 1.1872L1.80282 1.0471C1.80282 1.0471 2.05634 0.766882 2.22535 0.654797C2.95775 -0.0457395 3.85915 -0.0457395 4.59155 0.654797L6.90141 2.95255C7.23944 3.26079 7.43662 3.68111 7.43662 4.10143C7.43662 4.52176 7.23944 4.91406 6.90141 5.25031L5.46479 6.67941C5.46479 6.67941 5.40845 6.76347 5.40845 6.79149C5.40845 6.79149 5.40845 6.81951 5.40845 6.87556C5.49296 7.04368 5.57747 7.21181 5.66197 7.35192C5.74648 7.49203 5.80282 7.66016 5.91549 7.80026C6.73239 9.08925 7.77465 10.2381 9.15493 11.331C9.91549 11.9194 10.5352 12.3117 11.1549 12.5639C11.2676 12.5919 11.2676 12.5919 11.3521 12.5639C11.6901 12.1996 12 11.8634 12.3944 11.4991C12.4507 11.4431 12.5352 11.359 12.5915 11.3029L12.7606 11.1348C13.493 10.4063 14.3944 10.4063 15.1268 11.1348L16.3099 12.3117C16.3099 12.3117 16.4225 12.4238 16.4789 12.4798L16.6761 12.676C16.9859 12.9842 17.2113 13.2084 17.4366 13.4606C17.7746 13.7969 17.9437 14.1892 17.9437 14.6095C17.9437 15.0298 17.7746 15.3941 17.4366 15.7584L16 17.2155C15.5211 17.6918 14.9577 17.944 14.2817 18.0001C14.1408 18.0001 14 18.0001 13.8592 18.0001L13.9155 17.916ZM0.957747 1.99983L1.01408 2.05587C0.422535 2.58828 0.169014 3.23277 0.169014 4.04539C0.169014 4.12946 0.169014 4.1855 0.169014 4.26956C0.253521 5.61459 0.760563 6.84753 1.21127 7.74422C2.39437 10.1821 4.08451 12.3397 6.22535 14.1051C8 15.5622 9.66197 16.571 11.4366 17.2155C12.5634 17.6358 13.4648 17.8039 14.3099 17.7199C14.9296 17.6638 15.493 17.4116 15.9437 16.9633L17.3803 15.5342H17.4648H17.4085C17.7183 15.2259 17.8592 14.8617 17.8592 14.4974C17.8592 14.1331 17.6901 13.7688 17.3803 13.4606C17.1549 13.2084 16.9296 12.9842 16.6197 12.676L16.4225 12.5079C16.4225 12.5079 16.3099 12.3958 16.2535 12.3397H16.1972L15.0423 11.1628C14.3662 10.4903 13.5775 10.4903 12.9014 11.1628L12.7324 11.331C12.7324 11.331 12.5915 11.4711 12.5352 11.5271C12.1408 11.8914 11.831 12.2277 11.5211 12.5639C11.4085 12.676 11.3239 12.676 11.1549 12.648C10.507 12.3678 9.85915 12.0035 9.09859 11.387C7.71831 10.2662 6.64789 9.08925 5.83099 7.80026C5.74648 7.66016 5.66197 7.49203 5.57747 7.35192C5.52113 7.21181 5.43662 7.04368 5.32394 6.90358C5.32394 6.90358 5.29577 6.76347 5.29577 6.73545C5.29577 6.65138 5.35211 6.56732 5.40845 6.51128L6.84507 5.08218C7.15493 4.77395 7.32394 4.40967 7.32394 4.04539C7.32394 3.68111 7.15493 3.31683 6.84507 3.0086L4.50704 0.738861C3.85915 0.0943677 3.04225 0.0943677 2.3662 0.738861C2.22535 0.878968 2.08451 0.991054 1.97183 1.13116L1.85916 1.27127C1.60563 1.52346 1.35211 1.80368 1.07042 2.05587L1.01408 1.99983H0.957747ZM13.9155 16.599C13.3239 16.599 12.6761 16.4589 11.8592 16.1507C10.1972 15.5342 8.64789 14.6095 6.98592 13.2364C4.98592 11.5551 3.40845 9.56561 2.28169 7.26786C1.88732 6.45523 1.43662 5.3624 1.35211 4.21352C1.35211 4.15748 1.35211 4.10143 1.35211 4.04539C1.35211 3.56903 1.49296 3.23277 1.83099 2.92453C2.16901 2.64432 2.4507 2.3641 2.70423 2.08389L2.87324 1.91576C2.87324 1.91576 3.07042 1.71961 3.1831 1.63555C3.1831 1.63555 3.21127 1.63555 3.23944 1.5795C3.32394 1.49544 3.43662 1.4394 3.46479 1.4394C3.49296 1.4394 3.57746 1.4394 3.69014 1.5795L6.02817 3.90528C6.02817 3.90528 6.14085 4.01737 6.14085 4.04539V4.12946C6.14085 4.15748 6.08451 4.21352 6.02817 4.26956L4.59155 5.69866C4.28169 6.00689 4.14085 6.37117 4.14085 6.76347C4.14085 6.98764 4.19718 7.21181 4.30986 7.43598C4.30986 7.43598 4.30986 7.46401 4.30986 7.49203V7.54807C4.30986 7.54807 4.47887 7.80026 4.53521 7.91235C4.61972 8.08048 4.73239 8.27663 4.84507 8.47278C5.71831 9.87385 6.87324 11.1068 8.3662 12.3117C9.21127 13.0123 9.94366 13.4326 10.7324 13.7688H10.8169C11.4085 13.993 11.9155 13.8809 12.338 13.4606C12.3662 13.4606 12.3944 13.4046 12.3944 13.4046C12.7042 13.0403 13.0141 12.732 13.4085 12.3678C13.4085 12.3678 13.5493 12.1996 13.6338 12.1156L13.7465 12.0035C13.7465 12.0035 13.9437 11.8634 13.9718 11.8354H14.0282C14.0563 11.8354 14.1127 11.8914 14.1972 11.9755L15.5493 13.3205C15.5493 13.3205 15.6338 13.4046 15.662 13.4326L15.7465 13.5166C15.9718 13.7408 16.2254 13.993 16.4789 14.2452C16.4789 14.2452 16.6197 14.4133 16.6197 14.4694C16.6197 14.4694 16.5634 14.6095 16.4789 14.6935L15.0423 16.1226C14.7887 16.3748 14.507 16.4869 14.169 16.5149C14.0563 16.5149 13.9718 16.5149 13.8592 16.5149L13.9155 16.599ZM3.43662 1.5795C3.43662 1.5795 3.38028 1.60753 3.32394 1.66357C3.32394 1.66357 3.29577 1.69159 3.26761 1.71961C3.1831 1.80368 3.07042 1.91576 2.98592 1.99983L2.8169 2.16795C2.56338 2.44817 2.25352 2.72838 1.94366 3.0086C1.66197 3.28881 1.52113 3.59705 1.52113 4.01737C1.52113 4.07341 1.52113 4.10143 1.52113 4.15748C1.60563 5.27833 2.05634 6.34315 2.42254 7.15577C3.52113 9.42551 5.09859 11.415 7.09859 13.0683C8.76056 14.4413 10.2817 15.3661 11.9155 15.9545C12.8451 16.2908 13.5493 16.4309 14.2254 16.3748C14.5352 16.3748 14.7887 16.2347 15.0141 16.0105L16.4507 14.5815C16.4507 14.5815 16.5352 14.4974 16.5352 14.4694C16.5352 14.4694 16.507 14.4133 16.4507 14.3853C16.1972 14.1331 15.9718 13.8809 15.7183 13.6567L15.6338 13.5727C15.6338 13.5727 15.5493 13.4886 15.5211 13.4606L15.3239 13.2644L14.169 12.1156C14.169 12.1156 14.0845 12.0315 14.0563 12.0035C14.0563 12.0035 14 12.0595 13.9437 12.1156L13.831 12.2277C13.831 12.2277 13.662 12.3678 13.6056 12.4518C13.2394 12.8161 12.9296 13.1243 12.6197 13.4606C12.6197 13.4886 12.5634 13.5166 12.5352 13.5447C12.0563 13.993 11.493 14.1051 10.8451 13.9089H10.8169C10.8169 13.9089 10.8169 13.9089 10.7887 13.9089C9.97183 13.5727 9.23944 13.1243 8.3662 12.4518C6.87324 11.2469 5.71831 9.98594 4.8169 8.55684C4.67606 8.33267 4.59155 8.13652 4.50704 7.96839C4.4507 7.85631 4.3662 7.7162 4.30986 7.63214C4.30986 7.63214 4.30986 7.54807 4.28169 7.54807C4.16901 7.29588 4.11268 7.07171 4.11268 6.79149C4.11268 6.34315 4.28169 5.95085 4.61972 5.61459L6.05634 4.1855C6.05634 4.1855 6.11268 4.10143 6.14085 4.07341C6.14085 4.07341 6.14085 4.04539 6.08451 4.01737L3.74648 1.69159L3.6338 1.60753L3.43662 1.5795Z" fill="#D2EBFE"/>
</svg>
