<svg width="138" height="138" viewBox="0 0 138 138" fill="none" xmlns="http://www.w3.org/2000/svg">
<mask id="mask0_2729_5653" style="mask-type:alpha" maskUnits="userSpaceOnUse" x="0" y="0" width="138" height="138">
<rect y="0.268311" width="137.492" height="137.463" fill="#D9D9D9"/>
</mask>
<g mask="url(#mask0_2729_5653)">
<path d="M97.3674 98.2069C97.3674 105.481 97.3902 112.757 97.356 120.031C97.3423 123.012 96.6538 125.797 94.6257 128.129C92.4791 130.595 89.8229 132.013 86.5283 132.018C74.6278 132.04 62.7285 132.033 50.8292 132.024C45.6798 132.019 41.2349 127.862 40.4039 123.069C40.1599 121.669 40.1348 120.277 40.1348 118.874C40.1337 112.515 40.12 83.754 40.1394 80.5746C40.1508 78.7631 40.4643 76.9665 41.3159 75.3853C43.4648 71.3998 46.756 69.0378 51.4072 69.0241C63.0181 68.9887 74.629 68.9534 86.2387 69.0389C91.363 69.0777 96.5466 64.6237 97.1086 59.4766C97.2568 58.1234 97.3674 56.7828 97.3674 55.4262V25.3644C97.3674 22.5702 97.4506 19.7738 97.3503 16.9831C97.1508 11.4279 93.4241 7.11411 87.9704 6.00945C87.5543 5.92509 87.1063 5.99805 86.6719 5.99805C74.7247 5.99805 62.7764 5.92053 50.8292 6.03339C45.4324 6.08469 41.3011 10.0918 40.4062 14.955C40.1485 16.3549 40.1348 17.7469 40.1348 19.1502C40.1337 26.0392 40.1337 32.9283 40.1337 39.8173" stroke="#1A1818" stroke-width="10" stroke-linecap="round" stroke-linejoin="round"/>
<path d="M66.5829 40.5398C58.3943 40.2275 50.2 40.5797 42.0148 40.3369C39.2104 40.2537 36.4288 40.5524 33.6289 40.4224C30.8895 40.2959 28.1387 40.3951 25.3924 40.3951C22.5983 40.3951 19.7973 40.2719 17.0111 40.4213C11.3898 40.7211 7.32343 43.4503 5.75023 49.6484C5.64649 50.0554 5.73655 50.5126 5.73655 50.9458C5.73655 62.942 5.73769 74.9371 5.73655 86.9333C5.73541 91.0464 8.58199 95.0683 12.2516 96.5891C14.0677 97.3415 16.0136 97.6584 18.0212 97.6447C24.5728 97.6002 31.1255 97.6288 37.6771 97.6276C38.3064 97.6276 38.9402 97.6732 39.5558 97.484" stroke="#1A1818" stroke-width="10" stroke-linecap="round" stroke-linejoin="round"/>
<path d="M70.9183 97.6278C78.8675 97.6278 86.819 97.5195 94.7637 97.686C97.6137 97.7464 100.448 97.515 103.293 97.6073C106.085 97.6997 108.881 97.6278 111.676 97.6278C114.518 97.6278 117.361 97.6825 120.202 97.6141C123.617 97.5332 126.705 96.5026 128.999 93.8533C130.73 91.856 131.784 89.5384 131.777 86.7899C131.749 74.7925 131.859 62.7951 131.721 50.8012C131.661 45.5355 127.32 41.1545 122.225 40.6951C114.528 40.002 106.809 40.5742 99.1014 40.3827C98.6932 40.3713 98.3455 40.6119 97.9454 40.5401" stroke="#1A1818" stroke-width="10" stroke-linecap="round" stroke-linejoin="round"/>
<path d="M62.375 22.3161C62.375 25.6232 59.6938 28.3045 56.3866 28.3045C53.0795 28.3045 50.3982 25.6232 50.3982 22.3161C50.3982 19.0089 53.0795 16.3276 56.3866 16.3276C59.6938 16.3276 62.375 19.0089 62.375 22.3161Z" fill="#1A1818"/>
<path d="M87.4164 115.753C87.4164 119.06 84.7351 121.741 81.4279 121.741C78.1208 121.741 75.4395 119.06 75.4395 115.753C75.4395 112.445 78.1208 109.764 81.4279 109.764C84.7351 109.764 87.4164 112.445 87.4164 115.753Z" fill="#1A1818"/>
</g>
</svg>
