<svg width="20" height="24" viewBox="0 0 20 24" fill="none" xmlns="http://www.w3.org/2000/svg">
<path d="M7.46654 16.5188H1.49779V22.4875M12.2415 6.96875H18.2103V1M1 8.16608C1.66945 6.50969 2.79011 5.07429 4.23462 4.02301C5.67913 2.97173 7.38957 2.34673 9.17156 2.21903C10.9535 2.09133 12.7356 2.46605 14.3153 3.3006C15.8949 4.13516 17.2088 5.39609 18.1076 6.9401M18.7093 15.3214C18.04 16.9781 16.9193 18.4138 15.4747 19.4653C14.03 20.5168 12.3194 21.142 10.5372 21.2697C8.75496 21.3974 6.97265 21.0226 5.39286 20.1878C3.81306 19.353 2.49914 18.0917 1.60046 16.5474" stroke="white" stroke-width="2" stroke-linecap="round" stroke-linejoin="round"/>
</svg>
