<svg width="23" height="28" viewBox="0 0 23 28" fill="none" xmlns="http://www.w3.org/2000/svg">
<path d="M8.60095 19.2406H1.58535V26.2562M14.2134 8.01561H21.229V1M1.00024 9.42294C1.78711 7.47603 3.10432 5.78888 4.80218 4.55322C6.50004 3.31756 8.51048 2.58293 10.605 2.43283C12.6995 2.28273 14.7942 2.72317 16.6509 3.70411C18.5076 4.68504 20.0519 6.16712 21.1084 7.98193M21.8155 17.8332C21.0288 19.7805 19.7116 21.468 18.0136 22.704C16.3156 23.9399 14.305 24.6747 12.2101 24.8248C10.1153 24.9749 8.02044 24.5343 6.16356 23.5531C4.30669 22.5719 2.76232 21.0895 1.70601 19.2743" stroke="white" stroke-width="2" stroke-linecap="round" stroke-linejoin="round"/>
</svg>
